<mxfile host="app.diagrams.net" modified="2021-09-22T14:28:25.324Z" agent="5.0 (Windows NT 10.0; Win64; x64) AppleWebKit/537.36 (KHTML, like Gecko) Chrome/93.0.4577.82 Safari/537.36 Edg/93.0.961.52" etag="QZed47L6iiz_5hkffS2O" version="14.5.3" type="github">
  <diagram id="C5RBs43oDa-KdzZeNtuy" name="Page-1">
    <mxGraphModel dx="868" dy="482" grid="1" gridSize="10" guides="1" tooltips="1" connect="1" arrows="1" fold="1" page="1" pageScale="1" pageWidth="827" pageHeight="1169" math="0" shadow="0">
      <root>
        <mxCell id="WIyWlLk6GJQsqaUBKTNV-0" />
        <mxCell id="WIyWlLk6GJQsqaUBKTNV-1" parent="WIyWlLk6GJQsqaUBKTNV-0" />
        <mxCell id="6sB7FMl1BcBgy4cRxoEr-0" value="&lt;font size=&quot;3&quot;&gt;&lt;b&gt;Scanner&lt;/b&gt;&lt;/font&gt;" style="ellipse;whiteSpace=wrap;html=1;aspect=fixed;" vertex="1" parent="WIyWlLk6GJQsqaUBKTNV-1">
          <mxGeometry x="334" y="70" width="80" height="80" as="geometry" />
        </mxCell>
        <mxCell id="6sB7FMl1BcBgy4cRxoEr-2" value="&lt;font size=&quot;3&quot;&gt;&lt;b&gt;item&lt;/b&gt;&lt;/font&gt;" style="ellipse;whiteSpace=wrap;html=1;aspect=fixed;" vertex="1" parent="WIyWlLk6GJQsqaUBKTNV-1">
          <mxGeometry x="560" y="230" width="80" height="80" as="geometry" />
        </mxCell>
        <mxCell id="6sB7FMl1BcBgy4cRxoEr-3" value="&lt;font size=&quot;3&quot;&gt;&lt;b&gt;Tracker&lt;/b&gt;&lt;/font&gt;" style="ellipse;whiteSpace=wrap;html=1;aspect=fixed;" vertex="1" parent="WIyWlLk6GJQsqaUBKTNV-1">
          <mxGeometry x="334" y="360" width="80" height="80" as="geometry" />
        </mxCell>
        <mxCell id="6sB7FMl1BcBgy4cRxoEr-4" value="" style="endArrow=classic;html=1;" edge="1" parent="WIyWlLk6GJQsqaUBKTNV-1" source="6sB7FMl1BcBgy4cRxoEr-3">
          <mxGeometry width="50" height="50" relative="1" as="geometry">
            <mxPoint x="520" y="340" as="sourcePoint" />
            <mxPoint x="570" y="290" as="targetPoint" />
          </mxGeometry>
        </mxCell>
        <mxCell id="6sB7FMl1BcBgy4cRxoEr-5" value="&lt;font size=&quot;3&quot;&gt;&lt;b&gt;StartUI&lt;/b&gt;&lt;/font&gt;" style="ellipse;whiteSpace=wrap;html=1;aspect=fixed;" vertex="1" parent="WIyWlLk6GJQsqaUBKTNV-1">
          <mxGeometry x="130" y="210" width="80" height="80" as="geometry" />
        </mxCell>
        <mxCell id="6sB7FMl1BcBgy4cRxoEr-6" value="" style="endArrow=classic;html=1;entryX=0.013;entryY=0.738;entryDx=0;entryDy=0;entryPerimeter=0;" edge="1" parent="WIyWlLk6GJQsqaUBKTNV-1" target="6sB7FMl1BcBgy4cRxoEr-0">
          <mxGeometry width="50" height="50" relative="1" as="geometry">
            <mxPoint x="200" y="230" as="sourcePoint" />
            <mxPoint x="260" y="180" as="targetPoint" />
            <Array as="points" />
          </mxGeometry>
        </mxCell>
        <mxCell id="6sB7FMl1BcBgy4cRxoEr-8" value="" style="endArrow=classic;html=1;" edge="1" parent="WIyWlLk6GJQsqaUBKTNV-1" target="6sB7FMl1BcBgy4cRxoEr-3">
          <mxGeometry width="50" height="50" relative="1" as="geometry">
            <mxPoint x="200" y="275" as="sourcePoint" />
            <mxPoint x="250" y="225" as="targetPoint" />
          </mxGeometry>
        </mxCell>
        <mxCell id="6sB7FMl1BcBgy4cRxoEr-9" value="" style="endArrow=classic;html=1;entryX=0.05;entryY=0.288;entryDx=0;entryDy=0;entryPerimeter=0;" edge="1" parent="WIyWlLk6GJQsqaUBKTNV-1" target="6sB7FMl1BcBgy4cRxoEr-2">
          <mxGeometry width="50" height="50" relative="1" as="geometry">
            <mxPoint x="200" y="250" as="sourcePoint" />
            <mxPoint x="250" y="200" as="targetPoint" />
          </mxGeometry>
        </mxCell>
      </root>
    </mxGraphModel>
  </diagram>
</mxfile>
